<svg xmlns="http://www.w3.org/2000/svg" width="960" height="640" viewBox="0 0 960 640" fill="none">
  <g opacity=".22" stroke="#506B3C" stroke-width="1">
    <path d="M29 92c63-65 166-78 231-29 45 34 40 89-1 121-39 31-104 24-138 68-40 52 28 121 105 92 72-27 100-108 181-128 83-20 169 34 167 98-3 85-151 90-165 177-10 63 72 112 151 93 82-20 112-96 199-114 75-16 148 19 172 77"/>
    <path d="M-18 177c70-74 188-91 260-37 50 37 45 99 0 134-43 34-116 27-154 76-44 58 30 134 116 102 80-30 111-121 200-143 92-22 187 37 184 108-3 94-168 100-183 196-11 70 80 124 168 103"/>
    <path d="M778-2c-48 40-76 91-64 141 15 61 88 83 151 55 43-19 68-56 117-66"/>
    <path d="M645 22c-48 40-76 91-64 141 15 61 88 83 151 55 43-19 68-56 117-66"/>
    <path d="M74 565c93-31 163-4 211 51"/>
  </g>
</svg>